<?xml version="1.0" encoding="utf-8"?>
<!-- Generator: Adobe Illustrator 23.0.6, SVG Export Plug-In . SVG Version: 6.00 Build 0)  -->
<svg version="1.1" id="Warstwa_1" xmlns="http://www.w3.org/2000/svg" xmlns:xlink="http://www.w3.org/1999/xlink" x="0px" y="0px"
	 viewBox="0 0 100 100" style="enable-background:new 0 0 100 100;" xml:space="preserve">
<g>
	<path d="M47.7,33.9L49.6,8c0-4.4-3.6-8-8-8s-8,3.6-8,8l1.9,25.9H9v15.9h65.3V33.9H47.7z"/>
	<path d="M74.3,56.2H9C9,88,25.7,100,25.7,100h14c-1.4-1.4-6-6.6-7.6-17.1h0.6c3.5,10.5,13.6,15.7,16.7,17.1h19.4c0,0-6-5-8-17.1
		h0.7C65.8,95,79.1,100,79.1,100h11.5H91C91,100,74.3,88,74.3,56.2z M31.5,75.9C31.5,75.4,31.5,75.4,31.5,75.9L31.5,75.9z"/>
</g>
</svg>
